Coordinates
version=1
nRows=13
nColumns=36
inDegrees=yes

Units are S.I. units (second, meters, Newtons, ...)
If the header above contains a line with 'inDegrees', this indicates whether rotational values are in degrees (yes) or radians (no).

endheader
time	pelvis_tilt	pelvis_list	pelvis_rotation	pelvis_tx	pelvis_ty	pelvis_tz	hip_flexion_r	hip_adduction_r	hip_rotation_r	knee_angle_r	knee_angle_r_beta	ankle_angle_r	subtalar_angle_r	mtp_angle_r	hip_flexion_l	hip_adduction_l	hip_rotation_l	knee_angle_l	knee_angle_l_beta	ankle_angle_l	subtalar_angle_l	mtp_angle_l	lumbar_extension	lumbar_bending	lumbar_rotation	arm_flex_r	arm_add_r	arm_rot_r	elbow_flex_r	pro_sup_r	arm_flex_l	arm_add_l	arm_rot_l	elbow_flex_l	pro_sup_l
     -0.30000000	     -6.85213774	     -3.40758087	      3.23247665	     -0.49913031	      1.13804874	     -0.21870904	     25.33515257	     -1.07864034	     -6.45081910	     30.66135354	      0.53514157	     -6.78492387	    -28.79476415	     -7.49897443	      3.61578425	     -0.83710340	     -9.03253532	      5.69584747	      0.09941129	      8.88774682	     -0.88152643	     -7.49897443	    -11.93928564	    -11.82111308	    -10.77876011	    -11.38167917	     -2.98424896	    -14.38030462	     31.63466286	     93.20257725	      3.42388618	    -11.15290533	    -17.39238191	     41.23845149	     97.83820194
     -0.29000000	     -6.97250828	     -3.23894067	      3.47365219	     -0.49150189	      1.13671877	     -0.21953093	     26.11200135	     -1.19267612	     -6.12581015	     28.84581179	      0.50345439	     -5.99062880	    -28.15365523	     -7.49904228	      3.44684706	     -0.65004734	     -8.78270017	      5.94010226	      0.10367434	      8.71243533	     -1.23641745	     -7.49904228	    -12.01958207	    -11.65805200	    -11.35346668	    -10.71491294	     -3.14887323	    -13.26852381	     30.98015875	     93.04805258	      2.98851715	    -11.24029362	    -17.50969743	     42.08087177	     97.31918916
     -0.28000000	     -7.15431542	     -3.05755896	      3.67099052	     -0.48351503	      1.13504150	     -0.22007521	     26.94351710	     -1.26500903	     -5.64022861	     27.04657079	      0.47205171	     -5.29952664	    -27.74434050	     -7.49905505	      3.36706478	     -0.46925610	     -8.66569416	      6.22323029	      0.10861586	      8.75951480	     -1.28470310	     -7.49905505	    -12.01354266	    -11.47287251	    -11.38484130	    -10.53751743	     -3.11396611	    -13.20811470	     31.05264690	     92.91153592	      3.06057732	    -11.18913072	    -17.44861880	     42.30870195	     97.17713383
     -0.27000000	     -7.30473453	     -2.79927148	      3.86325382	     -0.47520572	      1.13332917	     -0.22038157	     27.71807736	     -1.40043959	     -5.08385085	     25.32479287	      0.44200102	     -4.46166699	    -27.22476975	     -7.49906473	      3.22521209	     -0.20923846	     -8.49463966	      6.45335414	      0.11263228	      8.81307747	     -1.30473494	     -7.49906473	    -12.04199392	    -11.39259350	    -11.42365502	    -10.33845021	     -3.02884642	    -13.16505327	     31.09912421	     92.79347557	      3.12765890	    -11.20659454	    -17.35768076	     42.51465354	     97.06638937
     -0.26000000	     -7.32926421	     -2.57407560	      4.11328960	     -0.46643716	      1.13188795	     -0.22095150	     28.24632801	     -1.63462655	     -5.01306338	     23.61089899	      0.41208793	     -2.41671476	    -25.01705051	     -7.49909937	      2.90916505	      0.03216523	     -8.17642756	      6.62266185	      0.11558725	      8.89278136	     -1.28094865	     -7.49909937	    -12.21456449	    -11.19164606	    -11.67069875	     -9.97531925	     -3.00313317	    -13.04438843	     30.85770894	     92.50108429	      3.04899368	    -11.27696160	    -16.98540927	     42.89630046	     96.83528133
     -0.25000000	     -7.44024004	     -2.22660192	      4.22239431	     -0.45739867	      1.13029489	     -0.22099514	     28.87315334	     -1.81412118	     -4.23285795	     22.01387389	      0.38421458	     -1.80439572	    -24.66999803	     -7.49910363	      2.64055856	      0.38512004	     -8.02191936	      6.78988850	      0.11850591	      8.87950198	     -1.21206149	     -7.49910363	    -12.23872056	    -11.20805914	    -11.65661681	     -9.82412274	     -2.91080302	    -13.00391383	     30.91540690	     92.46623403	      3.11497433	    -11.28714165	    -16.93287341	     42.99066888	     96.81247048
     -0.24000000	     -7.28985099	     -2.02385379	      4.38470367	     -0.44779585	      1.12927887	     -0.22154106	     29.05508796	     -2.01125982	     -4.25095092	     20.37035065	      0.35552969	      0.02800015	    -22.37494182	     -7.49913167	      2.01354424	      0.58545090	     -7.90634161	      6.89016308	      0.12025603	      8.90596517	     -0.96660232	     -7.49913167	    -12.50306852	    -10.93485339	    -11.70513344	     -9.57094636	     -2.92713612	    -12.91367107	     30.80743888	     92.29070717	      3.06742747	    -11.28330607	    -16.58595331	     43.23726469	     96.72283067
     -0.23000000	     -7.14590148	     -1.76089493	      4.44485856	     -0.43794420	      1.12818003	     -0.22192852	     29.23280220	     -2.17052627	     -3.90967084	     18.83032362	      0.32865115	      1.01757497	    -21.14561979	     -7.49915293	      1.32284846	      0.84663617	     -7.90446971	      6.97341907	      0.12170912	      8.75155088	     -0.74190418	     -7.49915293	    -12.72748550	    -10.76026578	    -11.65305971	     -9.36515233	     -2.92163193	    -12.82679444	     30.76281354	     92.26182050	      3.07646130	    -11.26350760	    -16.40000295	     43.27751881	     96.77869431
     -0.22000000	     -6.93251941	     -1.52569664	      4.48740780	     -0.42782419	      1.12709847	     -0.22246992	     29.28160360	     -2.29598731	     -3.61152771	     17.31984774	      0.30228837	      1.82620734	    -20.04190701	     -7.49925720	      0.48882594	      1.08635255	     -7.90592720	      7.01815116	      0.12248985	      8.45670445	     -0.59983458	     -7.49925720	    -12.99000726	    -10.53018480	    -11.60354265	     -9.18625008	     -3.02584986	    -12.19167043	     30.79952647	     90.96426968	      3.03671707	    -11.28312016	    -15.90902407	     43.29469987	     95.57812850
     -0.21000000	     -6.68675009	     -1.32465463	      4.52416569	     -0.41756006	      1.12590913	     -0.22316588	     29.23908208	     -2.38422391	     -3.43796466	     15.78030593	      0.27541830	      2.49134072	    -18.98443382	     -7.49935758	     -0.43211366	      1.29396857	     -7.96610281	      7.03855784	      0.12284601	      8.11683018	     -0.45430062	     -7.49935758	    -13.26470059	    -10.24985111	    -11.56883667	     -8.98140951	     -3.15561345	    -11.53113356	     30.76853759	     89.71561087	      2.96626043	    -11.25879129	    -15.58016986	     43.26929953	     94.38743560
     -0.20000000	     -6.50246596	     -1.15025129	      4.51701493	     -0.40725012	      1.12440059	     -0.22389746	     29.26149212	     -2.43511384	     -3.43398653	     14.27341374	      0.24911807	      3.22894690	    -17.64887989	     -7.49954752	     -1.31115036	      1.46493716	     -8.31951081	      7.06130129	      0.12324296	      7.91967497	      0.08656775	     -7.49954752	    -13.38500166	     -9.95120487	    -11.37359366	     -8.79664921	     -3.08117402	    -12.37933761	     30.61446171	     91.68422665	      2.91343456	    -11.03171834	    -15.99637752	     43.17382923	     96.99290650
     -0.19000000	     -6.18746850	     -1.03054019	      4.54075320	     -0.39710163	      1.12291831	     -0.22477877	     29.08803739	     -2.40800627	     -3.54483161	     12.67575785	      0.22123371	      3.82976633	    -16.37243588	     -7.49958626	     -2.37853124	      1.59117624	     -8.45897558	      6.97120854	      0.12167054	      7.67992492	      0.22032672	     -7.49958626	    -13.70058147	     -9.53400572	    -11.41675381	     -8.52438905	     -3.31049460	    -11.58158424	     30.58673943	     91.10083866	      2.70399944	    -10.93249428	    -15.88194757	     43.15565256	     96.29705971
     -0.18000000	     -6.00461864	     -0.87403609	      4.48350281	     -0.38707462	      1.12098635	     -0.22543004	     29.10462761	     -2.35008497	     -3.62060015	     11.15355508	      0.19466626	      4.33091613	    -15.11158173	     -7.49962027	     -3.33757791	      1.75757391	     -8.85423707	      6.80563313	      0.11878071	      7.75974644	      0.69564742	     -7.49962027	    -13.76668849	     -9.23767544	    -11.22707031	     -8.28987722	     -3.36175614	    -11.59749906	     30.28217183	     90.90189718	      2.53220333	    -10.76368820	    -15.91660779	     43.04617574	     96.22601510
